<?xml version="1.0" encoding="UTF-8" standalone="no"?>
<!-- Created with Inkscape (http://www.inkscape.org/) -->

<svg
   width="6.4990001mm"
   height="9.9770002mm"
   viewBox="0 0 6.4990001 9.9770002"
   version="1.1"
   id="svg286"
   inkscape:version="1.2.1 (9c6d41e410, 2022-07-14)"
   sodipodi:docname="favicon.svg"
   xmlns:inkscape="http://www.inkscape.org/namespaces/inkscape"
   xmlns:sodipodi="http://sodipodi.sourceforge.net/DTD/sodipodi-0.dtd"
   xmlns="http://www.w3.org/2000/svg"
   xmlns:svg="http://www.w3.org/2000/svg">
  <sodipodi:namedview
     id="namedview288"
     pagecolor="#ffffff"
     bordercolor="#666666"
     borderopacity="1.0"
     inkscape:showpageshadow="2"
     inkscape:pageopacity="0.0"
     inkscape:pagecheckerboard="0"
     inkscape:deskcolor="#d1d1d1"
     inkscape:document-units="mm"
     showgrid="false"
     inkscape:zoom="3.9408307"
     inkscape:cx="53.288257"
     inkscape:cy="39.078055"
     inkscape:window-width="1920"
     inkscape:window-height="1011"
     inkscape:window-x="0"
     inkscape:window-y="0"
     inkscape:window-maximized="1"
     inkscape:current-layer="layer1" />
  <defs
     id="defs283" />
  <g
     inkscape:label="Camada 1"
     inkscape:groupmode="layer"
     id="layer1">
    <path
       d="m 6.4079111,1.0853485 c -0.0858,-0.13139997 -0.21117,-0.13516997 -0.35402,-0.13946997 -0.0162,-4.9e-4 -0.0326,-9.8e-4 -0.0492,-0.002 -0.0127,-5.8e-4 -0.0266,-3.6e-4 -0.0412,-1.2e-4 -0.0579,9.3e-4 -0.1257,0.002 -0.15984,-0.0467 -0.0396,-0.0564 -0.0358,-0.1655 -0.0327,-0.25553 9.7e-4,-0.0284 0.002,-0.055 0.001,-0.0774 -0.006,-0.20915 -0.0172,-0.43132 -0.0979,-0.50559 -0.0609,-0.0557 -0.24302,-0.048 -0.41098,-0.0409 -0.0545,0.002 -0.10742,0.005 -0.15428,0.005 H 1.533491 c -0.072,0 -0.14744,-0.006 -0.22158,-0.0116 -0.14447,-0.0112000042 -0.28394,-0.0221 -0.38298001,0.0116 -0.14373,0.0491 -0.15347,0.3072 -0.16263,0.55022 l -4.9e-4,0.0131 c -0.008,0.20062 -0.0574,0.35543 -0.2222,0.33984 -0.19166,-0.0178 -0.38237,-0.0235 -0.46902,0.14998997 -0.10234,0.20523 -0.0812,0.4200601 -0.0434,0.8048601 0.005,0.055 0.0111,0.1134 0.0169,0.17577 H 6.4628211 c 0.004,-0.0456 0.008,-0.0906 0.0114,-0.13487 0.03,-0.34619 0.0562,-0.6478301 -0.0667,-0.8361201 z"
       fill="#8047f8"
       id="path2"
       style="stroke-width:0.264583" />
    <path
       fill-rule="evenodd"
       clip-rule="evenodd"
       d="m 0.54801099,2.4379786 c 0.10019,1.35594 0.19928,2.71341 0.29837,4.07094 l 6e-5,8.2e-4 c 0.0538,0.73707 0.10761,1.47418 0.16159001,2.21102 h 0.20468 c 0.0139,0.11533 0.0299,0.25773 0.0467,0.40785 0.0342,0.30475 0.0719,0.64143 0.10361,0.84831 h 0.0226 c 0.20849,-0.0763 1.64976,-0.69234 1.65039,-3.14497 -2.6e-4,-0.007 -2e-5,-0.014 6.9e-4,-0.0209 h -0.35608 c -0.0172,-1.6e-4 -0.0339,-0.006 -0.0475,-0.0164 -0.0136,-0.0105 -0.0234,-0.0251 -0.0278,-0.0415 -0.0347,-0.0857 -0.0627,-0.17394 -0.0837,-0.26389 -0.20947,0.11832 -0.37582,0.29898 -0.47533,0.51623 -0.0945,-0.22252 -0.10682,-0.47075 -0.0349,-0.70136 0.0719,-0.23061 0.22347,-0.42889 0.42825,-0.56023 0.003,-0.7157 0.27061,-1.4056 0.75316,-1.93911 l 0.008,-0.007 c 0.014,-0.0121 0.032,-0.0189 0.0506,-0.019 0.0108,1.1e-4 0.0214,0.002 0.0312,0.007 0.01,0.004 0.0188,0.0109 0.0261,0.0189 0.48821,0.53425 0.75475,1.23077 0.74647,1.9507 0.2086,0.12766 0.3632701,0.32581 0.4352901,0.55766 0.072,0.23185 0.0565,0.48167 -0.0436,0.70308 -0.099,-0.2176 -0.2654801,-0.39841 -0.4753501,-0.5162 -0.0128,0.0872 -0.0364,0.17248 -0.0703,0.25397 -0.0117,0.0347 -0.0351,0.0571 -0.0586,0.0571 h -0.37973 c 6.1e-4,0.004 0.001,0.008 0.001,0.0125 l 1.6e-4,9.5e-4 v 0.002 c 1.3e-4,0.004 1.3e-4,0.007 0,0.0109 0.005,2.52304 1.5375701,3.09573 1.6667401,3.13952 h 0.0442 c 0.0113,-0.19873 0.048,-0.47295 0.0838,-0.74028 0.0247,-0.1842 0.0489,-0.36518 0.0641,-0.51588 h 0.20703 c 0.0663,-0.92814 0.13444,-1.85368 0.2026,-2.77924 l 5e-5,-5e-4 3e-5,-2.7e-4 c 0.0872,-1.1839 0.17436,-2.36783 0.25759,-3.55727 H 0.56143099 c -0.0156,0.003 -0.0146,0.0286 -0.0133,0.0545 z m 2.70299001,1.3411 h -3.9e-4 8.2e-4 z"
       fill="#8047f8"
       id="path4"
       style="stroke-width:0.264583" />
  </g>
</svg>
